Coordinates
version=1
nRows=13
nColumns=40
inDegrees=yes

Units are S.I. units (second, meters, Newtons, ...)
If the header above contains a line with 'inDegrees', this indicates whether rotational values are in degrees (yes) or radians (no).

endheader
time	pelvis_tilt	pelvis_list	pelvis_rotation	pelvis_tx	pelvis_ty	pelvis_tz	hip_flexion_r	hip_adduction_r	hip_rotation_r	knee_angle_r	knee_angle_r_beta	ankle_angle_r	subtalar_angle_r	mtp_angle_r	hip_flexion_l	hip_adduction_l	hip_rotation_l	knee_angle_l	knee_angle_l_beta	ankle_angle_l	subtalar_angle_l	mtp_angle_l	lumbar_extension	lumbar_bending	lumbar_rotation	arm_flex_r	arm_add_r	arm_rot_r	elbow_flex_r	pro_sup_r	wrist_flex_r	wrist_dev_r	arm_flex_l	arm_add_l	arm_rot_l	elbow_flex_l	pro_sup_l	wrist_flex_l	wrist_dev_l
      2.62000000	    -12.62512173	     -2.93037573	      4.25928894	     -0.68682568	      0.93942152	      0.33650142	     42.21458999	     -1.32545091	    -13.18543854	     38.69392153	      0.67533633	      7.77927558	      0.00000000	      0.00000000	      6.92696497	     -6.04380422	      5.57749223	    111.15271307	      1.93998082	    -10.32993411	      0.00000000	      0.00000000	    -17.44268372	     10.91897131	     -8.15814621	    -33.31598690	    -25.49529485	    -26.89477906	     92.23593080	     87.00732605	      0.00000000	      0.00000000	    -12.00765588	    -20.10907949	     -2.15469825	     96.31830573	     86.77545083	      0.00000000	      0.00000000
      2.62500000	    -12.62341153	     -2.92522247	      3.76880411	     -0.65872972	      0.93898969	      0.33777688	     41.37846108	     -0.89698002	    -12.57188045	     40.83275488	      0.71266602	     10.33056536	      0.00000000	      0.00000000	      9.39714335	     -6.12217541	      5.87660183	    113.72556161	      1.98488549	    -10.22377754	      0.00000000	      0.00000000	    -17.57260542	     10.46906900	     -7.40750097	    -30.28416366	    -26.05316640	    -25.02182775	     91.80442156	     84.20191340	      0.00000000	      0.00000000	    -12.41483299	    -18.84699783	     -2.52846419	     92.47166897	     81.99444327	      0.00000000	      0.00000000
      2.63000000	    -12.58968329	     -2.87505503	      3.26862169	     -0.63052132	      0.93907784	      0.33910724	     40.30228125	     -0.46910714	    -11.86125494	     42.59604464	      0.74344123	     12.65877196	      0.00000000	      0.00000000	     11.88949343	     -6.17117258	      6.13910114	    115.97619210	      2.02416641	    -10.16686938	      0.00000000	      0.00000000	    -17.68758638	      9.94914155	     -6.67022431	    -27.30109370	    -26.44912316	    -22.89906406	     91.67014227	     76.26032709	      0.00000000	      0.00000000	    -12.88607507	    -17.74799017	     -2.44435971	     89.36425400	     65.26909485	      0.00000000	      0.00000000
      2.63500000	    -12.51510756	     -2.77545441	      2.76611338	     -0.60213398	      0.93965103	      0.34042710	     38.97517976	     -0.07684945	    -11.12449465	     43.98574732	      0.76769611	     14.71602108	      0.00000000	      0.00000000	     14.37226838	     -6.18056774	      6.34029359	    117.89455005	      2.05764807	    -10.11697867	      0.00000000	      0.00000000	    -17.79740425	      9.36900693	     -6.00345227	    -24.37260649	    -26.71704029	    -20.67943766	     91.93559394	     64.68915059	      0.00000000	      0.00000000	    -13.36633290	    -16.71858356	     -2.81128716	     86.51182862	     49.46101538	      0.00000000	      0.00000000
      2.64000000	    -12.39183572	     -2.61643108	      2.26825576	     -0.57352352	      0.94067501	      0.34168569	     37.39743995	      0.23987115	    -10.40202539	     45.02534808	      0.78584057	     16.47752767	      0.00000000	      0.00000000	     16.81507339	     -6.13317842	      6.45767667	    119.47729540	      2.08527219	    -10.03566306	      0.00000000	      0.00000000	    -17.90530960	      8.72939543	     -5.38255153	    -21.52118902	    -26.81815001	    -18.89747916	     92.27527557	     56.71645721	      0.00000000	      0.00000000	    -13.80815443	    -15.75127455	     -3.73347182	     83.19992609	     43.02689416	      0.00000000	      0.00000000
      2.64500000	    -12.21267794	     -2.38347531	      1.77940112	     -0.54466413	      0.94212497	      0.34286087	     35.57742767	      0.44453746	     -9.70778284	     45.74596545	      0.79841772	     17.92882171	      0.00000000	      0.00000000	     19.18883594	     -6.00959887	      6.46871122	    120.72248632	      2.10700487	     -9.89713463	      0.00000000	      0.00000000	    -18.00871967	      8.01707265	     -4.77828696	    -18.83571569	    -26.75148797	    -17.61169764	     92.55187088	     53.72707191	      0.00000000	      0.00000000	    -14.25329365	    -14.88731386	     -4.84718399	     79.77847603	     40.36700612	      0.00000000	      0.00000000
      2.65000000	    -11.98174102	     -2.07383892	      1.30844090	     -0.51556473	      0.94395690	      0.34395309	     33.54176540	      0.51815729	     -9.04850649	     46.17636857	      0.80592967	     19.05611838	      0.00000000	      0.00000000	     21.48535892	     -5.80601572	      6.36699848	    121.64741112	      2.12314785	     -9.67403873	      0.00000000	      0.00000000	    -18.09975394	      7.22780577	     -4.18352995	    -16.38871082	    -26.54811841	    -16.70450973	     92.88475290	     53.78556784	      0.00000000	      0.00000000	    -14.72327475	    -14.14267294	     -6.06530760	     76.38617282	     40.07745176	      0.00000000	      0.00000000
      2.65500000	    -11.70930642	     -1.69088447	      0.86514257	     -0.48625200	      0.94612206	      0.34497884	     31.32706097	      0.45572229	     -8.42736899	     46.34104937	      0.80880389	     19.84218946	      0.00000000	      0.00000000	     23.70757515	     -5.52727371	      6.16143440	    122.27368239	      2.13407835	     -9.35334944	      0.00000000	      0.00000000	    -18.17134374	      6.36164003	     -3.57858384	    -14.19089405	    -26.21251170	    -16.34541647	     93.09631776	     59.79484890	      0.00000000	      0.00000000	    -15.23590991	    -13.53987672	     -7.27473981	     73.31429005	     38.84726166	      0.00000000	      0.00000000
      2.66000000	    -11.41020098	     -1.24106458	      0.45907675	     -0.45676012	      0.94857121	      0.34595965	     28.97600076	      0.26109275	     -7.84723054	     46.26237777	      0.80743081	     20.26755616	      0.00000000	      0.00000000	     25.86562430	     -5.18074328	      5.87014153	    122.62162287	      2.14015105	     -8.93814053	      0.00000000	      0.00000000	    -18.20693829	      5.42077286	     -2.99299666	    -12.31489109	    -25.82628195	    -15.88763916	     93.94376183	     59.91023990	      0.00000000	      0.00000000	    -15.81950365	    -13.07218963	     -8.52751773	     70.47050423	     38.61264378	      0.00000000	      0.00000000
      2.66500000	    -11.10508535	     -0.73577893	      0.10120254	     -0.42712774	      0.95124688	      0.34690967	     26.53706144	     -0.05407517	     -7.31358959	     45.96371017	      0.80221808	     20.31398881	      0.00000000	      0.00000000	     27.97867596	     -4.77604454	      5.52028348	    122.71241177	      2.14173562	     -8.44076407	      0.00000000	      0.00000000	    -18.20811227	      4.41712027	     -2.35320651	    -10.58621113	    -25.27354764	    -16.78299619	     94.07616970	     77.83582373	      0.00000000	      0.00000000	    -16.42258118	    -12.77089531	     -9.71964713	     67.81762566	     39.97080157	      0.00000000	      0.00000000
      2.67000000	    -10.81813614	     -0.18656364	     -0.20043856	     -0.39738876	      0.95408658	      0.34783735	     24.06095119	     -0.47397266	     -6.82857848	     45.47169788	      0.79363084	     19.97023961	      0.00000000	      0.00000000	     30.06959683	     -4.32112273	      5.13860085	    122.56424984	      2.13914970	     -7.88040633	      0.00000000	      0.00000000	    -18.13506623	      3.36071522	     -1.76380778	     -9.17051895	    -24.74847576	    -17.10626685	     95.11193516	     83.72602579	      0.00000000	      0.00000000	    -17.13891241	    -12.59514739	    -10.94351374	     65.49851628	     41.78871372	      0.00000000	      0.00000000
      2.67500000	    -10.57348624	      0.39711704	     -0.44368029	     -0.36756722	      0.95702531	      0.34874761	     21.59654416	     -0.98096639	     -6.38798458	     44.81656138	      0.78219656	     19.23377776	      0.00000000	      0.00000000	     32.15944323	     -3.82234520	      4.74423131	    122.19088369	      2.13263324	     -7.27970324	      0.00000000	      0.00000000	    -17.97420538	      2.26286828	     -1.20370396	     -7.98049605	    -24.22426622	    -17.30427872	     96.44038812	     86.19060019	      0.00000000	      0.00000000	    -17.95032035	    -12.54181283	    -12.19497874	     63.42861921	     45.19972161	      0.00000000	      0.00000000
      2.68000000	    -10.38964844	      1.00908262	     -0.63314139	     -0.33767251	      0.96000708	      0.34964582	     19.18391372	     -1.55795000	     -5.98160659	     44.02853340	      0.76844287	     18.11024573	      0.00000000	      0.00000000	     34.26019533	     -3.28578723	      4.34432463	    121.60011979	      2.12232246	     -6.66039654	      0.00000000	      0.00000000	    -17.71399085	      1.13077951	     -0.66496859	     -6.97102596	    -23.70739882	    -17.48555133	     97.92850983	     87.26851944	      0.00000000	      0.00000000	    -18.84253918	    -12.59759924	    -13.53121132	     61.50577342	     51.53890804	      0.00000000	      0.00000000
